<svg width="72" height="63" viewBox="0 0 72 63" fill="none" xmlns="http://www.w3.org/2000/svg">
<path opacity="0.25" d="M43.1919 62.4609L54.3001 17.103L56.9661 30.0624C52.6709 30.0624 49.1163 28.7218 46.3022 26.0406C43.4882 23.3593 42.0811 19.7843 42.0811 15.3155C42.0811 10.8468 43.4882 7.19729 46.3022 4.36708C49.1163 1.53686 52.5969 0.121754 56.7439 0.121754C61.0391 0.121754 64.5937 1.53686 67.4078 4.36708C70.2219 7.34625 71.6289 10.9957 71.6289 15.3155C71.6289 16.8051 71.5549 18.2202 71.4067 19.5608C71.1105 20.9015 70.6662 22.4655 70.0738 24.2531C69.4813 26.1895 68.6667 28.4984 67.63 31.1796L57.1883 62.4609H43.1919ZM1.20296 62.4609L12.3112 17.103L14.9771 30.0624C10.682 30.0624 7.12733 28.7218 4.31326 26.0406C1.49918 23.3593 0.0921402 19.7843 0.0921402 15.3155C0.0921402 10.8468 1.49918 7.19729 4.31326 4.36708C7.12733 1.53686 10.6079 0.121754 14.755 0.121754C19.0501 0.121754 22.6048 1.53686 25.4188 4.36708C28.2329 7.34625 29.6399 10.9957 29.6399 15.3155C29.6399 16.8051 29.5659 18.2202 29.4178 19.5608C29.1216 20.9015 28.6772 22.4655 28.0848 24.2531C27.4924 26.1895 26.6778 28.4984 25.641 31.1796L15.1993 62.4609H1.20296Z" fill="white"/>
</svg>
