<svg width="102" height="38" viewBox="0 0 102 38" fill="none" xmlns="http://www.w3.org/2000/svg">
<g clip-path="url(#clip0_1_698)">
<path d="M10.1445 14.485L19.4993 2.2975L16.89 0.25L6 14.4872L16.9035 28.75L19.5 26.722L10.1445 14.485ZM0 28.75H3V1H0V28.75Z" fill="white"/>
<path fill-rule="evenodd" clip-rule="evenodd" d="M26.3565 27.844C27.6817 28.7875 29.3123 29.2593 31.2495 29.2593C33.1733 29.2593 34.8232 28.7875 36.1995 27.844C37.5885 26.8885 38.652 25.5993 39.3915 23.9762C40.1302 22.354 40.5 20.5233 40.5 18.4862C40.5 16.4485 40.1302 14.6177 39.3915 12.9955C38.652 11.3725 37.5885 10.096 36.1995 9.16525C34.8232 8.22175 33.18 7.75 31.2683 7.75C29.3318 7.75 27.6945 8.215 26.3557 9.1465C25.7738 9.55457 25.2469 10.036 24.7882 10.579V8.31625H21.75V37.75H25.1715V26.8127C25.533 27.1915 25.9282 27.535 26.3565 27.844ZM24.789 18.4855C24.789 16.9765 25.0057 15.649 25.4385 14.5045C25.872 13.3473 26.5282 12.448 27.4072 11.8068C28.287 11.1528 29.3948 10.8257 30.7328 10.8257C32.1353 10.8257 33.288 11.1647 34.1925 11.8442C35.1097 12.5237 35.7855 13.4418 36.2183 14.599C36.6645 15.7563 36.888 17.0515 36.888 18.4855C36.888 19.933 36.6645 21.2403 36.219 22.4103C35.7727 23.5675 35.1038 24.4863 34.212 25.165C33.3195 25.8445 32.1922 26.1842 30.8287 26.1842C29.4397 26.1842 28.2997 25.8573 27.4072 25.2025C26.5155 24.5357 25.8533 23.6245 25.4198 22.4672C24.9998 21.2972 24.789 19.9697 24.789 18.4855ZM47.5298 28.165C49.0463 29.0553 50.8177 29.5 52.8442 29.5C54.8452 29.5 56.649 29.0042 58.2547 28.012C59.8732 27.007 61.0845 25.5955 61.887 23.7767L58.6177 22.651C58.0447 23.821 57.2542 24.718 56.2477 25.3405C55.2405 25.9637 54.0555 26.2757 52.6912 26.2757C50.6647 26.2757 49.104 25.6082 48.0075 24.2725C47.0595 23.1175 46.521 21.5522 46.3935 19.579H62.2312C62.3332 17.137 62.0145 15.0317 61.2757 13.264C60.549 11.4962 59.4533 10.135 57.987 9.181C56.535 8.227 54.7695 7.75 52.692 7.75C50.6902 7.75 48.9443 8.2015 47.4533 9.1045C45.9743 9.99475 44.8208 11.2667 43.9928 12.9205C43.164 14.5615 42.75 16.507 42.75 18.7585C42.75 20.908 43.17 22.7905 44.0115 24.406C44.853 26.0088 46.0253 27.2613 47.529 28.1643L47.5298 28.165ZM58.7025 16.8497C58.5135 15.0625 58.0267 13.6757 57.2407 12.691C56.2463 11.431 54.768 10.8018 52.8052 10.8018C50.7022 10.8018 49.1033 11.476 48.0068 12.8245C47.184 13.837 46.6695 15.178 46.4647 16.8497H58.7025ZM70.5938 29.5C69.09 29.5 67.8278 29.2203 66.8085 28.66C65.8013 28.0878 65.037 27.3378 64.5142 26.4093C64.0042 25.4808 63.75 24.463 63.75 23.3568C63.75 22.2753 63.9487 21.3407 64.347 20.5518C64.7486 19.7607 65.3374 19.0797 66.0622 18.568C66.7957 18.0332 67.6725 17.614 68.6917 17.308C69.7474 17.0198 70.8183 16.7907 71.8995 16.6217C73.0927 16.4185 74.2995 16.234 75.5175 16.0682C76.2893 15.9633 77.0288 15.8612 77.736 15.7615C77.6978 14.1992 77.337 13.024 76.6545 12.2335C75.909 11.356 74.616 10.9172 72.7763 10.9172C71.5575 10.9172 70.4888 11.203 69.5685 11.7752C68.661 12.3355 68.0205 13.2513 67.6478 14.5233L64.4955 13.5497C64.9808 11.7437 65.9198 10.3255 67.3118 9.295C68.7045 8.26525 70.5382 7.75 72.813 7.75C74.6408 7.75 76.2075 8.0875 77.5125 8.761C78.8302 9.4225 79.7752 10.4275 80.3475 11.776C80.6392 12.4351 80.8218 13.1373 80.8882 13.855C80.9625 14.593 81 15.3685 81 16.183V28.9277H78.0532V25.7192C77.3812 26.7685 76.548 27.6018 75.5542 28.222C74.1997 29.074 72.546 29.5 70.5938 29.5ZM71.0977 26.6575C72.291 26.6575 73.323 26.4408 74.193 26.0088C75.0758 25.5633 75.7845 24.985 76.3193 24.2725C76.8426 23.5734 77.1997 22.7641 77.3633 21.9062C77.55 21.2703 77.649 20.5645 77.6618 19.789C77.6753 19.3547 77.6857 18.9767 77.6917 18.6542C77.0092 18.7487 76.3343 18.841 75.6667 18.9303C74.622 19.0697 73.6342 19.2227 72.7012 19.3878C71.8517 19.522 71.011 19.7068 70.1835 19.9412C69.6449 20.1156 69.1261 20.3458 68.6355 20.6283C68.1731 20.8988 67.778 21.2706 67.4798 21.7157C67.194 22.1485 67.0508 22.6885 67.0508 23.3373C67.0508 23.8975 67.1872 24.4315 67.461 24.94C67.7467 25.4492 68.1818 25.8625 68.766 26.1805C69.363 26.4985 70.14 26.6575 71.0977 26.6575Z" fill="white"/>
<path d="M83.25 26.3253V29.2675C84.6247 29.5495 85.716 29.575 86.523 29.344C87.3307 29.1265 87.9487 28.6458 88.3777 27.9018C88.806 27.1458 89.1405 26.1393 89.3805 24.883C89.5313 24.1525 89.67 23.287 89.7967 22.2873C89.9355 21.2748 90.0615 20.185 90.1748 19.018C90.288 17.839 90.3953 16.6278 90.4965 15.3843C90.6098 14.1408 90.7043 12.9288 90.78 11.7498H98.6325V29.2675H102V8.5H87.7155C87.6015 10.5512 87.4755 12.4743 87.3367 14.269C87.2228 15.9123 87.0778 17.5534 86.9018 19.1912C86.7503 20.6913 86.5673 22.0503 86.3528 23.2683C86.2268 24.037 86.0625 24.6783 85.8608 25.1905C85.6718 25.6908 85.3755 26.0433 84.972 26.248C84.5805 26.4408 84.0067 26.4662 83.25 26.3253Z" fill="white"/>
</g>
<defs>
<clipPath id="clip0_1_698">
<rect width="102" height="37.5" fill="white" transform="translate(0 0.25)"/>
</clipPath>
</defs>
</svg>
